<?xml version="1.0" standalone="no"?>
<!DOCTYPE svg PUBLIC "-//W3C//DTD SVG 20010904//EN"
 "http://www.w3.org/TR/2001/REC-SVG-20010904/DTD/svg10.dtd">
<svg version="1.0" xmlns="http://www.w3.org/2000/svg"
 width="400.000000pt" height="400.000000pt" viewBox="0 0 400.000000 400.000000"
 preserveAspectRatio="xMidYMid meet">
<metadata>
Created by potrace 1.11, written by Peter Selinger 2001-2013
</metadata>
<g transform="translate(0.000000,400.000000) scale(0.100000,-0.100000)"
fill="#000000" stroke="none">
<path d="M2284 3938 c75 -191 37 -370 -135 -626 -60 -89 -277 -380 -290 -387
-4 -3 -43 14 -86 38 -67 38 -338 172 -398 197 -106 43 -188 78 -287 124 -43
19 -78 33 -78 31 0 -2 22 -27 49 -55 57 -59 104 -150 122 -235 17 -85 14 -259
-8 -360 -2 -11 -5 -31 -8 -45 -2 -14 -13 -65 -24 -115 -76 -330 -73 -315 -86
-410 -7 -52 -7 -208 0 -260 17 -127 83 -259 176 -355 48 -48 162 -130 183
-130 3 0 25 -9 49 -19 70 -32 237 -81 322 -95 17 -2 30 -5 30 -6 0 -1 11 -3
25 -6 14 -2 48 -9 75 -15 28 -6 61 -13 75 -15 174 -34 242 -58 326 -113 86
-55 161 -149 178 -223 8 -37 4 -35 -27 10 -41 59 -78 96 -142 141 -131 92
-284 109 -522 57 -53 -11 -214 -72 -321 -120 -257 -116 -375 -145 -496 -123
-65 11 -118 39 -173 90 l-45 41 23 -39 c13 -22 26 -42 29 -45 3 -3 20 -27 39
-55 64 -93 209 -250 277 -299 17 -13 15 -15 -22 -33 -125 -63 -246 -70 -344
-19 l-55 28 45 -47 c25 -25 77 -72 115 -103 39 -31 72 -60 75 -63 3 -3 39 -26
80 -51 96 -58 205 -107 282 -127 4 -1 22 -7 40 -12 34 -10 64 -17 108 -25 53
-10 270 -11 316 -3 27 5 63 11 79 13 201 26 512 156 705 293 114 82 274 241
352 350 130 180 253 501 284 738 3 28 8 59 10 69 23 120 22 495 -1 631 -38
222 -70 349 -127 515 -162 467 -419 901 -723 1216 -76 79 -84 85 -71 52z"/>
</g>
</svg>
